<svg width="134" height="185" viewBox="0 0 134 185" fill="none" xmlns="http://www.w3.org/2000/svg">
<path d="M72.3249 141.644V0.253418L95.5917 0.509093V141.644H72.3249ZM72.3242 70.8207L72.3249 51.6448H127.807V70.8207H72.3242ZM72.3249 141.388H95.5917C95.5917 146.331 96.2735 150.507 97.6371 153.916C99.0007 157.325 100.961 159.967 103.518 161.842C106.075 163.547 109.143 164.399 112.722 164.399L110.677 184.598C98.7451 184.598 89.3702 180.848 82.5521 173.348C75.734 165.677 72.3249 155.024 72.3249 141.388ZM124.739 160.052L133.943 176.672C130.534 179.228 126.784 181.188 122.694 182.552C118.773 183.916 114.768 184.598 110.677 184.598L112.722 164.399C114.938 164.399 116.983 164.058 118.858 163.376C120.904 162.524 122.864 161.416 124.739 160.052Z" fill="#009900"/>
<path d="M95.1124 51.3914H71.8456V0H95.1124V51.3914ZM71.8456 158.253V51.1357H95.1124V167.253L71.8456 158.253ZM0 139.089V92.2999H23.2667V139.089H0ZM23.2667 92.2999H0C0 83.7773 1.78975 76.1069 5.36925 69.2888C8.94874 62.4708 13.8066 57.1015 19.9429 53.1811C26.2496 49.2607 33.4086 47.3005 41.4199 47.3005L47.3005 68.0105C40.312 68.0105 34.5166 70.3116 29.9144 74.9138C25.4826 79.3455 23.2667 85.1409 23.2667 92.2999ZM82.0728 92.8113H71.8456C71.8456 85.4818 69.5445 79.516 64.9423 74.9138C60.3401 70.3116 54.4595 68.0105 47.3005 68.0105L41.4199 47.3005C49.0902 47.3005 55.9936 49.2607 62.1298 53.1811C68.4366 57.1015 73.2945 62.556 76.7035 69.5445C80.283 76.3626 82.0728 84.1182 82.0728 92.8113ZM23.2667 139.089C23.2667 146.248 25.4826 152.129 29.9144 156.731C34.5166 161.163 40.312 163.378 47.3005 163.378L41.4199 184.088C33.4086 184.088 26.2496 182.128 19.9429 178.208C13.8066 174.287 8.94874 168.918 5.36925 162.1C1.78975 155.282 0 147.612 0 139.089H23.2667ZM82.0728 138.322C82.0728 147.015 80.283 154.856 76.7035 161.844C73.2945 168.663 68.4366 174.117 62.1298 178.208C55.9936 182.128 49.0902 184.088 41.4199 184.088L47.3005 163.378C54.4595 163.378 60.3401 161.077 64.9423 156.475C69.5445 151.873 71.8456 145.822 71.8456 138.322H82.0728Z" fill="#009900"/>
</svg>
